<svg width="112" height="39" viewBox="0 0 112 39" xmlns="http://www.w3.org/2000/svg"><title>Imported Layers 2</title><g fill="none" fill-rule="evenodd"><path d="M.159.214h111.214V38.91H.16V.214z" fill="#003978"/><path d="M16.584 16.918v2.644h3.792v5.277h-6.321l.001-10.555H24.17v-2.638H10.261c-.694 0-1.255.586-1.255 1.309v13.213c0 .724.561 1.31 1.255 1.31h13.908v-10.56h-7.585m26.545 10.56H29.214c-.694 0-1.257-.586-1.257-1.31v-7.934c0-.723.563-1.31 1.257-1.31h6.325v2.638h-3.784v5.28h6.318v-10.56h-6.318v-2.636h10.118c.694 0 1.256.586 1.256 1.309v14.523m59.398 0H88.612c-.692 0-1.254-.586-1.254-1.31v-7.934c0-.723.562-1.31 1.254-1.31h6.327v2.638h-3.785v5.28h6.317v-10.56h-6.317v-2.636h10.12c.692 0 1.253.586 1.253 1.309v14.523M62.089 11.646h-13.92c-.693 0-1.255.585-1.255 1.309v14.523h3.79V14.281h2.53v5.28h2.53v-5.28h2.53v13.197h5.05V12.955c0-.724-.562-1.31-1.255-1.31m20.221.001H68.39c-.693 0-1.255.585-1.255 1.309v14.523h3.79V14.281h2.532v5.28h2.528v-5.28h2.529v13.197h5.051V12.955c0-.724-.562-1.31-1.254-1.31" fill="#FFF"/></g></svg>